<?xml version="1.0" encoding="UTF-8" standalone="no"?>
<svg 
   width="32"
   height="32"
   viewBox="0 0 32 32"
   version="1.1"
   id="antiemail-phishing-favicon"
   xmlns="http://www.w3.org/2000/svg">
  
  <defs>
    <linearGradient id="shield-gradient" x1="0%" y1="0%" x2="100%" y2="100%">
      <stop offset="0%" style="stop-color:#f0f0f0;stop-opacity:1" />
      <stop offset="100%" style="stop-color:#e0e0e0;stop-opacity:1" />
    </linearGradient>
    <linearGradient id="accent-gradient" x1="0%" y1="0%" x2="100%" y2="100%">
      <stop offset="0%" style="stop-color:#ffb938;stop-opacity:1" />
      <stop offset="100%" style="stop-color:#e9ab34;stop-opacity:1" />
    </linearGradient>
  </defs>
  
  <!-- Shield Base - Simplified for small size -->
  <path 
     d="M16,2 L4,8 C4,8 4,18 4,24 C4,30 16,30 16,30 C16,30 28,30 28,24 C28,18 28,8 28,8 L16,2 Z" 
     fill="url(#shield-gradient)"
     stroke="#0071f5"
     stroke-width="0.5" />
     
  <!-- Email Icon - Simplified -->
  <rect
     x="9"
     y="9"
     width="14"
     height="9"
     rx="1"
     ry="1"
     fill="#ffffff"
     stroke="#0071f5"
     stroke-width="0.5" />
     
  <!-- Email Line -->
  <path
     d="M9,11 L16,15 L23,11"
     fill="none"
     stroke="#0071f5"
     stroke-width="0.5" />
     
  <!-- No Phishing Symbol - Simplified for small size -->
  <path
     d="M11,18 L20,24"
     stroke="#e9ab34"
     stroke-width="1.2"
     stroke-linecap="round" />
  
  <!-- Security Shield Accent -->
  <path
     d="M16,23 C14,23 13,22 12,20 C14.5,21 17.5,21 20,20 C19,22 18,23 16,23 Z"
     fill="url(#accent-gradient)" />
</svg>